<svg width="25" height="18" viewBox="0 0 25 18" fill="none" xmlns="http://www.w3.org/2000/svg">
<path d="M17.9819 9.00005H9.01437V14.3348C9.01422 14.645 8.94943 14.949 8.82726 15.2126C8.70509 15.4762 8.53037 15.6888 8.32283 15.8266C8.1153 15.9644 7.88318 16.0218 7.65257 15.9925C7.42196 15.9633 7.20208 15.8483 7.0176 15.6607L2.92817 11.5017C2.63964 11.209 2.40564 10.8308 2.24454 10.3968C2.08343 9.96277 1.99957 9.48475 1.99957 9.00005C1.99957 8.51536 2.08343 8.03723 2.24454 7.6032C2.40564 7.16916 2.63964 6.79096 2.92817 6.49833L7.0176 2.33927C7.20208 2.15166 7.42196 2.03674 7.65257 2.00745C7.88318 1.97816 8.1153 2.0356 8.32283 2.17341C8.53037 2.31122 8.70509 2.52385 8.82726 2.7874C8.94943 3.05096 9.01422 3.35502 9.01437 3.66523V4.80117" stroke="#FD5D69" stroke-width="2.15865" stroke-linecap="round" stroke-linejoin="round"/>
</svg>
